<svg width="195.372864" height="200.595825" viewBox="0 0 195.373 200.596" fill="none" xmlns="http://www.w3.org/2000/svg" xmlns:xlink="http://www.w3.org/1999/xlink">
	<desc>
			Created with Pixso.
	</desc>
	<defs/>
	<path id="СЫРЬЕ" d="M67.36 93.39C70.16 92.54 72.95 93.53 74.33 96.23L72.65 96.74C71.66 94.93 69.68 94.4 67.83 94.97C65.31 95.73 63.91 98.29 65.01 101.91C66.11 105.52 68.68 106.88 71.21 106.11C73.06 105.55 74.41 104.01 74.23 101.96L75.92 101.45C76.26 104.46 74.5 106.84 71.69 107.69C68.13 108.77 64.71 106.81 63.38 102.4C62.04 98 63.79 94.47 67.36 93.39ZM77.42 90.55L79.19 96.39L82.73 95.32C85.72 94.41 87.82 95.47 88.55 97.88C89.28 100.31 88.17 102.49 85.17 103.39L79.96 104.98L75.74 91.06L77.42 90.55ZM86.94 87.66L88.62 87.15L92.84 101.07L91.16 101.58L86.94 87.66ZM97.9 99.54L96.21 100.05L91.99 86.13L96.69 84.7C99.97 83.71 102.02 85.21 102.76 87.67C103.51 90.13 102.64 92.55 99.4 93.53L96.35 94.45L97.9 99.54ZM105.83 81.93L107.6 87.78L111.14 86.71C114.13 85.8 116.23 86.86 116.96 89.27C117.7 91.69 116.58 93.87 113.59 94.78L108.37 96.36L104.15 82.44L105.83 81.93ZM129.38 89.99L120.87 92.57L116.65 78.65L125.05 76.1L125.51 77.6L118.79 79.64L120.21 84.34L126.49 82.44L126.95 83.93L120.67 85.84L122.1 90.57L128.93 88.5L129.38 89.99ZM94.13 87.11L95.9 92.96L98.89 92.05C101.13 91.37 101.61 89.84 101.11 88.18C100.6 86.5 99.36 85.53 97.1 86.21L94.13 87.11ZM83.18 96.81L79.64 97.89L81.19 103L84.73 101.93C86.63 101.35 87.3 99.72 86.89 98.36C86.48 97.03 85.08 96.24 83.18 96.81ZM111.59 88.2L108.05 89.27L109.6 94.39L113.14 93.31C115.04 92.74 115.71 91.11 115.3 89.75C114.89 88.42 113.49 87.62 111.59 88.2Z" fill="#FFFFFF" fill-opacity="1.000000" fill-rule="evenodd"/>
	<path id="Форма 7" d="M176.2 30.59L192.54 8.85C112.71 -1.75 70.89 -1.5 1.84 8.85L18.79 30.59L176.2 30.59Z" stroke="#56FDE0" stroke-opacity="1.000000" stroke-width="2.000000"/>
	<path id="Форма 7" d="M177.2 170L193.54 191.74C113.71 202.33 71.89 202.08 2.84 191.74L19.79 170L177.2 170Z" stroke="#56FDE0" stroke-opacity="1.000000" stroke-width="2.000000"/>
	<path id="Прямоугольник 8" d="M177.41 29.99L18.79 29.99C-1.56 93.87 2.68 122.77 18.79 170.11L177.41 170.11C192.01 124.68 195.03 95.76 177.41 29.99ZM175.87 31.99Q188.02 77.85 187.49 107.64Q187.04 133.14 175.94 168.11L20.22 168.11Q7.74 131 7.12 106.2Q6.36 76.1 20.25 31.99L175.87 31.99Z" fill="#56FDE0" fill-opacity="1.000000" fill-rule="evenodd"/>
	<path id="Форма 8" d="M7.84 121.5C35.84 70.99 116.34 48.49 182.84 61" stroke="#56FDE0" stroke-opacity="1.000000" stroke-width="2.000000"/>
	<path id="Форма 9" d="M8.84 132.5C97.8 132.83 151.6 113.4 186.84 80.99" stroke="#56FDE0" stroke-opacity="1.000000" stroke-width="2.000000"/>
	<path id="Форма 10" d="M33.34 50.99L38.84 30.99" stroke="#56FDE0" stroke-opacity="1.000000" stroke-width="2.000000"/>
	<path id="Форма 11" d="M150.84 168C163.13 153.63 167.14 144.82 169.34 128" stroke="#56FDE0" stroke-opacity="1.000000" stroke-width="2.000000"/>
</svg>
