<svg width="260.806458" height="258.058960" viewBox="0 0 260.806 258.059" fill="none" xmlns="http://www.w3.org/2000/svg" xmlns:xlink="http://www.w3.org/1999/xlink">
	<desc>
			Created with Pixso.
	</desc>
	<defs>
		<filter id="filter_2_77_dd" x="0.000000" y="0.000000" width="260.806458" height="258.058960" filterUnits="userSpaceOnUse" color-interpolation-filters="sRGB">
			<feFlood flood-opacity="0" result="BackgroundImageFix"/>
			<feColorMatrix in="SourceAlpha" type="matrix" values="0 0 0 0 0 0 0 0 0 0 0 0 0 0 0 0 0 0 127 0" result="hardAlpha"/>
			<feOffset dx="0" dy="0"/>
			<feGaussianBlur stdDeviation="5"/>
			<feComposite in2="hardAlpha" operator="out" k2="-1" k3="1"/>
			<feColorMatrix type="matrix" values="0 0 0 0 0.33725 0 0 0 0 0.99216 0 0 0 0 0.87843 0 0 0 1 0"/>
			<feBlend mode="normal" in2="BackgroundImageFix" result="effect_dropShadow_1"/>
			<feBlend mode="normal" in="SourceGraphic" in2="effect_dropShadow_1" result="shape"/>
		</filter>
	</defs>
	<g filter="url(#filter_2_77_dd)">
		<path id="Слияние" d="M136 24.3665L136 23.5001L136.5 23C149.467 95.1207 173.894 117.272 242.566 129.066C171.349 136.024 150.04 161.665 136.566 234.773L136.566 235.632L136.066 236.132C122.596 162.749 101.334 137.036 30.0001 130.066C98.5555 118.292 123.016 96.1958 136 24.3665Z" clip-rule="evenodd" fill="#56FDE0" fill-opacity="1.000000" fill-rule="evenodd"/>
		<path id="Слияние" d="M136 24.3665L136 23.5001L136.5 23C149.467 95.1207 173.894 117.272 242.566 129.066C171.349 136.024 150.04 161.665 136.566 234.773L136.566 235.632L136.066 236.132C122.596 162.749 101.334 137.036 30.0001 130.066C98.5555 118.292 123.016 96.1958 136 24.3665Z" clip-rule="evenodd" fill="#56FDE0" fill-opacity="1.000000" fill-rule="evenodd"/>
		<path id="Слияние" d="M136 24.3665L136 23.5001L136.5 23C149.467 95.1207 173.894 117.272 242.566 129.066C171.349 136.024 150.04 161.665 136.566 234.773L136.566 235.632L136.066 236.132C122.596 162.749 101.334 137.036 30.0001 130.066C98.5555 118.292 123.016 96.1958 136 24.3665Z" clip-rule="evenodd" fill="#56FDE0" fill-opacity="1.000000" fill-rule="evenodd"/>
		<path id="Слияние" d="M136 24.3665L136 23.5001L136.5 23C149.467 95.1207 173.894 117.272 242.566 129.066C171.349 136.024 150.04 161.665 136.566 234.773L136.566 235.632L136.066 236.132C122.596 162.749 101.334 137.036 30.0001 130.066C98.5555 118.292 123.016 96.1958 136 24.3665Z" clip-rule="evenodd" fill="#56FDE0" fill-opacity="1.000000" fill-rule="evenodd"/>
		<path id="Слияние" d="M198.277 148.609L198.277 148.223L198.5 148C204.283 180.167 215.178 190.046 245.806 195.306C214.043 198.41 204.539 209.846 198.529 242.453L198.529 242.836L198.306 243.059C192.299 210.33 182.816 198.861 151 195.753C181.576 190.501 192.486 180.646 198.277 148.609Z" clip-rule="evenodd" fill="#56FDE0" fill-opacity="1.000000" fill-rule="evenodd"/>
		<path id="Слияние" d="M198.277 148.609L198.277 148.223L198.5 148C204.283 180.167 215.178 190.046 245.806 195.306C214.043 198.41 204.539 209.846 198.529 242.453L198.529 242.836L198.306 243.059C192.299 210.33 182.816 198.861 151 195.753C181.576 190.501 192.486 180.646 198.277 148.609Z" clip-rule="evenodd" fill="#56FDE0" fill-opacity="1.000000" fill-rule="evenodd"/>
		<path id="Слияние" d="M198.277 148.609L198.277 148.223L198.5 148C204.283 180.167 215.178 190.046 245.806 195.306C214.043 198.41 204.539 209.846 198.529 242.453L198.529 242.836L198.306 243.059C192.299 210.33 182.816 198.861 151 195.753C181.576 190.501 192.486 180.646 198.277 148.609Z" clip-rule="evenodd" fill="#56FDE0" fill-opacity="1.000000" fill-rule="evenodd"/>
		<path id="Слияние" d="M198.277 148.609L198.277 148.223L198.5 148C204.283 180.167 215.178 190.046 245.806 195.306C214.043 198.41 204.539 209.846 198.529 242.453L198.529 242.836L198.306 243.059C192.299 210.33 182.816 198.861 151 195.753C181.576 190.501 192.486 180.646 198.277 148.609Z" clip-rule="evenodd" fill="#56FDE0" fill-opacity="1.000000" fill-rule="evenodd"/>
		<path id="Слияние" d="M64.7653 15.6478L64.7653 15.2371L65 15C71.0878 49.1981 82.5559 59.7018 114.796 65.2942C81.3608 68.5937 71.3568 80.7521 65.031 115.418L65.031 115.826L64.7963 116.063C58.4721 81.2661 48.4901 69.0732 15 65.7684C47.1857 60.1854 58.6696 49.7078 64.7653 15.6478Z" clip-rule="evenodd" fill="#56FDE0" fill-opacity="1.000000" fill-rule="evenodd"/>
		<path id="Слияние" d="M64.7653 15.6478L64.7653 15.2371L65 15C71.0878 49.1981 82.5559 59.7018 114.796 65.2942C81.3608 68.5937 71.3568 80.7521 65.031 115.418L65.031 115.826L64.7963 116.063C58.4721 81.2661 48.4901 69.0732 15 65.7684C47.1857 60.1854 58.6696 49.7078 64.7653 15.6478Z" clip-rule="evenodd" fill="#56FDE0" fill-opacity="1.000000" fill-rule="evenodd"/>
		<path id="Слияние" d="M64.7653 15.6478L64.7653 15.2371L65 15C71.0878 49.1981 82.5559 59.7018 114.796 65.2942C81.3608 68.5937 71.3568 80.7521 65.031 115.418L65.031 115.826L64.7963 116.063C58.4721 81.2661 48.4901 69.0732 15 65.7684C47.1857 60.1854 58.6696 49.7078 64.7653 15.6478Z" clip-rule="evenodd" fill="#56FDE0" fill-opacity="1.000000" fill-rule="evenodd"/>
		<path id="Слияние" d="M64.7653 15.6478L64.7653 15.2371L65 15C71.0878 49.1981 82.5559 59.7018 114.796 65.2942C81.3608 68.5937 71.3568 80.7521 65.031 115.418L65.031 115.826L64.7963 116.063C58.4721 81.2661 48.4901 69.0732 15 65.7684C47.1857 60.1854 58.6696 49.7078 64.7653 15.6478Z" clip-rule="evenodd" fill="#56FDE0" fill-opacity="1.000000" fill-rule="evenodd"/>
	</g>
</svg>
