<svg width="120.000000" height="120.000000" viewBox="0 0 120 120" fill="none" xmlns="http://www.w3.org/2000/svg" xmlns:xlink="http://www.w3.org/1999/xlink">
	<desc>
			Created with Pixso.
	</desc>
	<defs/>
	<path id="Исключить" d="M60 0C26.8629 0 0 26.8629 0 60C0 93.1371 26.8629 120 60 120C93.1371 120 120 93.1371 120 60C120 26.8629 93.1371 0 60 0ZM60.5 2C28.7437 2 3 27.7437 3 59.5C3 91.2563 28.7437 117 60.5 117C92.2563 117 118 91.2563 118 59.5C118 27.7437 92.2563 2 60.5 2Z" clip-rule="evenodd" fill="#56FDE0" fill-opacity="1.000000" fill-rule="evenodd"/>
	<rect id="Прямоугольник 5" x="16.000000" y="39.407715" width="4.000000" height="77.000000" transform="rotate(-58.4228 16.000000 39.407715)" fill="#56FDE0" fill-opacity="1.000000"/>
	<rect id="Прямоугольник 6" x="89.283813" y="42.000000" width="6.495239" height="37.479980" transform="rotate(62.6284 89.283813 42.000000)" fill="#56FDE0" fill-opacity="1.000000"/>
</svg>
