<svg width="480.000000" height="480.000000" viewBox="0 0 480 480" fill="none" xmlns="http://www.w3.org/2000/svg" xmlns:xlink="http://www.w3.org/1999/xlink">
	<desc>
			Created with Pixso.
	</desc>
	<defs/>
	<circle id="Эллипс 2" cx="240.000000" cy="240.000000" r="240.000000" fill="#E4DE41" fill-opacity="1.000000"/>
	<circle id="Эллипс 2" cx="240.000000" cy="240.000000" r="239.500000" stroke="#000000" stroke-opacity="1.000000" stroke-width="1.000000"/>
	<ellipse id="Эллипс 2" cx="240.500000" cy="240.000000" rx="203.500000" ry="204.000000" fill="#FFF947" fill-opacity="1.000000"/>
	<ellipse id="Эллипс 2" cx="240.500000" cy="240.000000" rx="203.000000" ry="203.500000" stroke="#000000" stroke-opacity="1.000000" stroke-width="1.000000"/>
	<path id="Форма 1" d="M179 116L179 391L229.48 391L229.48 281.93C330.45 281.93 343 258.19 343 205.71C343 135.05 322.86 116 236.77 116C179.07 116 236.7 116 179 116Z" fill="#EED957" fill-opacity="1.000000" fill-rule="evenodd"/>
	<path id="Форма 1" d="M179 391L229.48 391L229.48 281.93C330.45 281.93 343 258.19 343 205.71C343 135.05 322.86 116 236.77 116C179.07 116 236.7 116 179 116L179 391Z" stroke="#000000" stroke-opacity="1.000000" stroke-width="1.000000"/>
	<path id="Эллипс 3" d="M208 202.5C208 163.36 215.61 151 261 151C306.38 151 314 161.59 314 202.5C314 243.4 309.02 254 261 254C212.97 254 208 241.64 208 202.5Z" fill="#DEBB4F" fill-opacity="1.000000" fill-rule="evenodd"/>
	<path id="Эллипс 3" d="M261 151C306.38 151 314 161.59 314 202.5C314 243.4 309.02 254 261 254C212.97 254 208 241.64 208 202.5C208 163.36 215.61 151 261 151Z" stroke="#000000" stroke-opacity="1.000000" stroke-width="1.000000"/>
</svg>
