<svg width="150.072784" height="236.000000" viewBox="0 0 150.073 236" fill="none" xmlns="http://www.w3.org/2000/svg" xmlns:xlink="http://www.w3.org/1999/xlink">
	<desc>
			Created with Pixso.
	</desc>
	<defs/>
	<ellipse id="Эллипс 1" cx="75.052795" cy="200.000000" rx="74.000000" ry="35.000000" stroke="#56FDE0" stroke-opacity="1.000000" stroke-width="2.000000"/>
	<rect id="Прямоугольник 1" x="1.052795" y="51.000000" width="148.000000" height="148.000000" stroke="#56FDE0" stroke-opacity="1.000000" stroke-width="2.000000"/>
	<ellipse id="Эллипс 1" cx="75.052795" cy="63.000000" rx="74.000000" ry="35.000000" stroke="#56FDE0" stroke-opacity="1.000000" stroke-width="2.000000"/>
	<rect id="Прямоугольник 2" x="1.042786" y="37.000000" width="148.029999" height="27.000000" stroke="#56FDE0" stroke-opacity="1.000000" stroke-width="2.000000"/>
	<ellipse id="Эллипс 1" cx="75.052795" cy="36.000000" rx="74.000000" ry="35.000000" stroke="#56FDE0" stroke-opacity="1.000000" stroke-width="2.000000"/>
	<ellipse id="Эллипс 1" cx="75.052795" cy="36.000000" rx="64.000000" ry="30.000000" stroke="#56FDE0" stroke-opacity="1.000000" stroke-width="2.000000"/>
	<path id="БЕЛОК 97.4%" d="M88.79 117.25C92.51 117.25 95.21 120.12 95.21 124.72C95.21 129.32 92.51 132.2 88.79 132.2C85.06 132.2 82.36 129.32 82.36 124.72C82.36 120.12 85.06 117.25 88.79 117.25ZM48.99 132L43.53 132L43.53 117.45L52.31 117.45L52.31 119.01L45.29 119.01L45.29 123.56L48.99 123.56C52.11 123.56 53.82 125.18 53.82 127.7C53.82 130.23 52.11 132 48.99 132ZM65.61 132L56.71 132L56.71 117.45L65.49 117.45L65.49 119.01L58.47 119.01L58.47 123.93L65.03 123.93L65.03 125.49L58.47 125.49L58.47 130.43L65.61 130.43L65.61 132ZM67.96 132L67.42 132L67.42 130.37L67.85 130.37C69.67 130.37 70.13 128.76 70.29 124.47L70.55 117.45L79.41 117.45L79.41 132L77.65 132L77.65 119.01L72.22 119.01L71.99 124.81C71.82 129.38 71.17 132 67.96 132ZM108.82 132L106.71 132L101.71 125.32L99.92 125.32L99.92 132L98.16 132L98.16 117.45L99.92 117.45L99.92 123.76L100.69 123.76L106.51 117.45L108.62 117.45L102.73 123.84L108.82 132ZM88.79 130.55C91.43 130.55 93.5 128.5 93.5 124.72C93.5 120.95 91.43 118.9 88.79 118.9C86.14 118.9 84.07 120.95 84.07 124.72C84.07 128.5 86.14 130.55 88.79 130.55ZM45.29 125.12L45.29 130.46L48.99 130.46C50.97 130.46 52.08 129.1 52.08 127.68C52.08 126.29 50.97 125.12 48.99 125.12L45.29 125.12ZM49.03 146.11C49.03 143.44 50.93 141.22 53.89 141.25C56.27 141.28 58.94 142.79 58.94 148.12C58.94 153.3 56.92 156.2 53.66 156.2C51.22 156.2 49.48 154.63 49.14 152.33L50.87 152.33C51.19 153.67 52.12 154.63 53.66 154.63C55.9 154.63 57.3 152.59 57.3 149.01L57.18 149.01C56.39 150.2 55.11 150.94 53.6 150.94C51.1 150.94 49.03 148.92 49.03 146.11ZM91.61 147.87C89.77 147.87 88.77 146.54 88.77 144.95L88.77 144.18C88.77 142.59 89.8 141.25 91.61 141.25C93.46 141.25 94.43 142.59 94.43 144.18L94.43 144.95C94.43 146.54 93.43 147.87 91.61 147.87ZM63.63 156L61.78 156L68.29 143.12L68.29 143.01L60.79 143.01L60.79 141.45L70.11 141.45L70.11 143.1L63.63 156ZM82.27 153.01L75.42 153.01L75.42 151.56L81.81 141.45L83.94 141.45L83.94 151.45L85.93 151.45L85.93 153.01L83.94 153.01L83.94 156L82.27 156L82.27 153.01ZM90.93 156L89.31 156L99.31 141.45L100.93 141.45L90.93 156ZM91.61 142.47C90.62 142.47 90.22 143.3 90.22 144.18L90.22 144.95C90.22 145.82 90.59 146.65 91.61 146.65C92.61 146.65 92.98 145.82 92.98 144.95L92.98 144.18C92.98 143.3 92.64 142.47 91.61 142.47ZM57.04 146.08C57.04 144.37 55.7 142.81 53.89 142.81C52.1 142.81 50.73 144.29 50.73 146.11C50.73 147.93 52.04 149.37 53.83 149.37C55.62 149.37 57.04 147.81 57.04 146.08ZM77.32 151.45L82.27 151.45L82.27 143.7L82.15 143.7L77.32 151.34L77.32 151.45ZM98.86 156.2C97.01 156.2 96.02 154.86 96.02 153.27L96.02 152.5C96.02 150.91 97.04 149.57 98.86 149.57C100.7 149.57 101.67 150.91 101.67 152.5L101.67 153.27C101.67 154.86 100.68 156.2 98.86 156.2ZM98.86 150.8C97.86 150.8 97.47 151.62 97.47 152.5L97.47 153.27C97.47 154.15 97.83 154.97 98.86 154.97C99.85 154.97 100.22 154.15 100.22 153.27L100.22 152.5C100.22 151.62 99.88 150.8 98.86 150.8ZM72.78 154.83C72.78 155.53 72.2 156.11 71.5 156.11C70.79 156.11 70.22 155.53 70.22 154.83C70.22 154.13 70.79 153.55 71.5 153.55C72.2 153.55 72.78 154.13 72.78 154.83Z" fill="#FFFFFF" fill-opacity="1.000000" fill-rule="evenodd"/>
	<path id="Линия 1" d="M1 176.99C0.99 214.49 125.92 232.98 149.14 177.98" stroke="#56FDE0" stroke-opacity="1.000000" stroke-width="2.000000"/>
	<rect id="Прямоугольник 3" x="73.052795" y="78.000000" width="4.000000" height="15.000000" fill="#56FDE0" fill-opacity="1.000000"/>
	<rect id="Прямоугольник 3" x="95.052795" y="75.000000" width="4.000000" height="15.000000" fill="#56FDE0" fill-opacity="1.000000"/>
	<rect id="Прямоугольник 3" x="117.052795" y="70.000000" width="4.000000" height="15.000000" fill="#56FDE0" fill-opacity="1.000000"/>
	<rect id="Прямоугольник 3" x="136.052795" y="59.000000" width="4.000000" height="15.000000" fill="#56FDE0" fill-opacity="1.000000"/>
	<rect id="Прямоугольник 3" x="54.052795" y="75.000000" width="4.000000" height="15.000000" fill="#56FDE0" fill-opacity="1.000000"/>
	<rect id="Прямоугольник 3" x="33.052795" y="70.000000" width="4.000000" height="15.000000" fill="#56FDE0" fill-opacity="1.000000"/>
	<rect id="Прямоугольник 3" x="13.052795" y="60.000000" width="4.000000" height="15.000000" fill="#56FDE0" fill-opacity="1.000000"/>
	<path id="Форма 14" d="M1.05 120.06C3.54 112.06 18.46 112.06 23.43 112.06C28.41 112.06 29.4 101.51 37.12 97.06C42.52 91.38 64.71 83.2 71.32 84.06C77.92 84.91 92.21 85.94 94.33 90.06C104.24 89.16 109.25 89.93 117.33 93.56C124.63 97.94 125.44 100.29 127.91 104.56C138.15 109.86 127.91 120.06 130.39 116.56C132.88 113.06 145.99 114.48 149.05 120.06" stroke="#56FDE0" stroke-opacity="1.000000" stroke-width="2.000000"/>
	<path id="Форма 15" d="M43.09 109.87C45.33 100.35 60.61 106.11 57.86 108.02" stroke="#56FDE0" stroke-opacity="1.000000" stroke-width="1.000000"/>
	<path id="Форма 15" d="M86.82 105.94C97.18 97.55 108.15 111.2 103.69 111.69" stroke="#56FDE0" stroke-opacity="1.000000" stroke-width="1.000000"/>
	<path id="Форма 15" d="M64.11 98.13C66.54 87.59 83.48 94.03 80.44 96.13" stroke="#56FDE0" stroke-opacity="1.000000" stroke-width="1.000000"/>
</svg>
