<svg width="721.395752" height="673.881836" viewBox="0 0 721.396 673.882" fill="none" xmlns="http://www.w3.org/2000/svg" xmlns:xlink="http://www.w3.org/1999/xlink">
	<desc>
			Created with Pixso.
	</desc>
	<defs/>
	<circle id="Эллипс 4" r="163.500000" transform="matrix(0.781217 -0.62426 0.62426 0.781217 329.424 329.556)" fill="#FAF20F" fill-opacity="1.000000"/>
	<path id="Форма 3" d="M41.84 465.24L12.87 361.72L133.95 362.1L147.56 410.73L94.7 437.99L41.84 465.24Z" fill="#FAF20F" fill-opacity="1.000000" fill-rule="evenodd"/>
	<path id="Форма 3" d="M265.02 1.86L372.5 0L341.53 117.05L291.04 117.93L278.03 59.9L265.02 1.86Z" fill="#FAF20F" fill-opacity="1.000000" fill-rule="evenodd"/>
	<path id="Форма 3" d="M431.06 19.84L525.64 70.93L441.25 157.75L396.81 133.75L413.94 76.8L431.06 19.84Z" fill="#FAF20F" fill-opacity="1.000000" fill-rule="evenodd"/>
	<path id="Форма 3" d="M85.68 110.23L169.66 43.12L216.6 154.73L177.15 186.26L131.41 148.24L85.68 110.23Z" fill="#FAF20F" fill-opacity="1.000000" fill-rule="evenodd"/>
	<path id="Форма 3" d="M0 299.61L23.13 194.63L129.8 251.93L118.93 301.25L59.46 300.43L0 299.61Z" fill="#FAF20F" fill-opacity="1.000000" fill-rule="evenodd"/>
	<ellipse id="Эллипс 5" cx="561.395752" cy="370.381836" rx="160.000000" ry="142.500000" fill="#FFFFFF" fill-opacity="1.000000"/>
	<ellipse id="Эллипс 6" cx="395.895752" cy="593.381836" rx="130.500000" ry="80.500000" fill="#FFFFFF" fill-opacity="1.000000"/>
	<ellipse id="Эллипс 7" cx="440.395752" cy="489.881836" rx="86.000000" ry="69.000000" fill="#FFFFFF" fill-opacity="1.000000"/>
	<ellipse id="Эллипс 8" cx="561.395752" cy="553.381836" rx="118.000000" ry="90.500000" fill="#FFFFFF" fill-opacity="1.000000"/>
</svg>
