<svg width="150.072754" height="236.000000" viewBox="0 0 150.073 236" fill="none" xmlns="http://www.w3.org/2000/svg" xmlns:xlink="http://www.w3.org/1999/xlink">
	<desc>
			Created with Pixso.
	</desc>
	<defs/>
	<ellipse id="Эллипс 1" cx="75.052734" cy="200.000000" rx="74.000000" ry="35.000000" stroke="#56FDE0" stroke-opacity="1.000000" stroke-width="2.000000"/>
	<rect id="Прямоугольник 1" x="1.052734" y="51.000000" width="148.000000" height="148.000000" stroke="#56FDE0" stroke-opacity="1.000000" stroke-width="2.000000"/>
	<ellipse id="Эллипс 1" cx="75.052734" cy="63.000000" rx="74.000000" ry="35.000000" stroke="#56FDE0" stroke-opacity="1.000000" stroke-width="2.000000"/>
	<rect id="Прямоугольник 2" x="1.042725" y="37.000000" width="148.029999" height="27.000000" stroke="#56FDE0" stroke-opacity="1.000000" stroke-width="2.000000"/>
	<ellipse id="Эллипс 1" cx="75.052734" cy="36.000000" rx="74.000000" ry="35.000000" stroke="#56FDE0" stroke-opacity="1.000000" stroke-width="2.000000"/>
	<ellipse id="Эллипс 1" cx="75.052734" cy="36.000000" rx="64.000000" ry="30.000000" stroke="#56FDE0" stroke-opacity="1.000000" stroke-width="2.000000"/>
	<path id="БЕЛОК 90%" d="M88.79 117.25C92.51 117.25 95.21 120.12 95.21 124.72C95.21 129.32 92.51 132.2 88.79 132.2C85.06 132.2 82.36 129.32 82.36 124.72C82.36 120.12 85.06 117.25 88.79 117.25ZM48.99 132L43.53 132L43.53 117.45L52.31 117.45L52.31 119.01L45.29 119.01L45.29 123.56L48.99 123.56C52.11 123.56 53.82 125.18 53.82 127.7C53.82 130.23 52.11 132 48.99 132ZM65.61 132L56.71 132L56.71 117.45L65.49 117.45L65.49 119.01L58.47 119.01L58.47 123.93L65.03 123.93L65.03 125.49L58.47 125.49L58.47 130.43L65.61 130.43L65.61 132ZM67.96 132L67.42 132L67.42 130.37L67.85 130.37C69.67 130.37 70.13 128.76 70.29 124.47L70.55 117.45L79.41 117.45L79.41 132L77.65 132L77.65 119.01L72.22 119.01L71.99 124.81C71.82 129.38 71.17 132 67.96 132ZM108.82 132L106.71 132L101.71 125.32L99.92 125.32L99.92 132L98.16 132L98.16 117.45L99.92 117.45L99.92 123.76L100.69 123.76L106.51 117.45L108.62 117.45L102.73 123.84L108.82 132ZM88.79 130.55C91.43 130.55 93.5 128.5 93.5 124.72C93.5 120.95 91.43 118.9 88.79 118.9C86.14 118.9 84.07 120.95 84.07 124.72C84.07 128.5 86.14 130.55 88.79 130.55ZM45.29 125.12L45.29 130.46L48.99 130.46C50.97 130.46 52.08 129.1 52.08 127.68C52.08 126.29 50.97 125.12 48.99 125.12L45.29 125.12ZM56.22 146.11C56.22 143.44 58.12 141.22 61.07 141.25C63.46 141.28 66.13 142.79 66.13 148.12C66.13 153.3 64.11 156.2 60.85 156.2C58.4 156.2 56.67 154.63 56.33 152.33L58.06 152.33C58.37 153.67 59.31 154.63 60.85 154.63C63.09 154.63 64.48 152.59 64.48 149.01L64.37 149.01C63.57 150.2 62.3 150.94 60.79 150.94C58.29 150.94 56.22 148.92 56.22 146.11ZM78.72 148.72C78.72 153.48 76.87 156.2 73.66 156.2C70.45 156.2 68.6 153.48 68.6 148.72C68.6 144.01 70.47 141.25 73.66 141.25C76.84 141.25 78.72 144.01 78.72 148.72ZM84.43 147.87C82.58 147.87 81.58 146.54 81.58 144.95L81.58 144.18C81.58 142.59 82.61 141.25 84.43 141.25C86.27 141.25 87.24 142.59 87.24 144.18L87.24 144.95C87.24 146.54 86.24 147.87 84.43 147.87ZM83.74 156L82.13 156L92.13 141.45L93.74 141.45L83.74 156ZM84.43 142.47C83.43 142.47 83.03 143.3 83.03 144.18L83.03 144.95C83.03 145.82 83.4 146.65 84.43 146.65C85.42 146.65 85.79 145.82 85.79 144.95L85.79 144.18C85.79 143.3 85.45 142.47 84.43 142.47ZM70.3 148.72C70.3 152.51 71.54 154.63 73.66 154.63C75.77 154.63 77.01 152.51 77.01 148.72C77.01 144.95 75.76 142.79 73.66 142.79C71.55 142.79 70.3 144.95 70.3 148.72ZM64.23 146.08C64.23 144.37 62.89 142.81 61.07 142.81C59.28 142.81 57.92 144.29 57.92 146.11C57.92 147.93 59.23 149.37 61.02 149.37C62.81 149.37 64.23 147.81 64.23 146.08ZM91.67 156.2C89.83 156.2 88.83 154.86 88.83 153.27L88.83 152.5C88.83 150.91 89.85 149.57 91.67 149.57C93.52 149.57 94.48 150.91 94.48 152.5L94.48 153.27C94.48 154.86 93.49 156.2 91.67 156.2ZM91.67 150.8C90.68 150.8 90.28 151.62 90.28 152.5L90.28 153.27C90.28 154.15 90.65 154.97 91.67 154.97C92.66 154.97 93.03 154.15 93.03 153.27L93.03 152.5C93.03 151.62 92.69 150.8 91.67 150.8Z" fill="#FFFFFF" fill-opacity="1.000000" fill-rule="evenodd"/>
	<path id="Линия 1" d="M1 176.99C0.99 214.49 125.92 232.98 149.14 177.98" stroke="#56FDE0" stroke-opacity="1.000000" stroke-width="2.000000"/>
	<rect id="Прямоугольник 3" x="73.052734" y="78.000000" width="4.000000" height="15.000000" fill="#56FDE0" fill-opacity="1.000000"/>
	<rect id="Прямоугольник 3" x="95.052734" y="75.000000" width="4.000000" height="15.000000" fill="#56FDE0" fill-opacity="1.000000"/>
	<rect id="Прямоугольник 3" x="117.052734" y="70.000000" width="4.000000" height="15.000000" fill="#56FDE0" fill-opacity="1.000000"/>
	<rect id="Прямоугольник 3" x="136.052734" y="59.000000" width="4.000000" height="15.000000" fill="#56FDE0" fill-opacity="1.000000"/>
	<rect id="Прямоугольник 3" x="54.052734" y="75.000000" width="4.000000" height="15.000000" fill="#56FDE0" fill-opacity="1.000000"/>
	<rect id="Прямоугольник 3" x="33.052734" y="70.000000" width="4.000000" height="15.000000" fill="#56FDE0" fill-opacity="1.000000"/>
	<rect id="Прямоугольник 3" x="13.052734" y="60.000000" width="4.000000" height="15.000000" fill="#56FDE0" fill-opacity="1.000000"/>
</svg>
